<?xml version="1.0" encoding="utf-8"?><svg version="1.1" id="Layer_1" xmlns="http://www.w3.org/2000/svg" xmlns:xlink="http://www.w3.org/1999/xlink" x="0px" y="0px" viewBox="0 0 122.88 109.9" style="enable-background:new 0 0 122.88 109.9" xml:space="preserve"><style type="text/css">.st0{fill-rule:evenodd;clip-rule:evenodd;}</style><g><path class="st0" d="M112.29,104.13v3.93c0,1.02-0.82,1.84-1.84,1.84H11.94c-1.02,0-1.84-0.82-1.84-1.84V51.67 c-2.05,0.79-3.97,0.8-5.57,0.27c-1.25-0.42-2.29-1.17-3.07-2.15c-0.77-0.97-1.27-2.16-1.41-3.46c-0.23-2.02,0.38-4.32,2.11-6.47v0 c0.09-0.11,0.19-0.21,0.3-0.29L60.05,0.48c0.65-0.6,1.65-0.66,2.37-0.1l57.71,38.99h0c0.08,0.06,0.15,0.13,0.22,0.2 c2.32,2.5,2.9,5.27,2.34,7.62c-0.28,1.15-0.83,2.19-1.6,3.05c-0.77,0.86-1.73,1.52-2.84,1.92c-1.76,0.63-3.84,0.61-5.96-0.39 V104.13L112.29,104.13L112.29,104.13L112.29,104.13z M36.37,89.32h2.98c1.95-3.02,6.13-4.6,9.87-6.01 c0.92-0.35,1.82-0.69,2.64-1.03c0.43-0.57,0.79-1.19,1.06-1.84c0.24-0.57,0.42-1.16,0.54-1.79c-0.67-0.4-1.31-0.87-1.92-1.4 c-2.48-2.2-4.21-4-5.33-6.07c-1.13-2.11-1.61-3.23-1.55-6.48l0.18-6.23c0-0.1,0.02-0.2,0.05-0.29l-2.19-0.76 c-0.32-7.14,3.7-11.43,8.68-13.58c1.81-0.78-1.22-4.74,2.95-3.35c5.57,1.87,17.93,4.3,20.86,7.67c2.38,2.74,2.48,4.24,2.42,7.85 c-0.02,1.17-0.2,2.2-0.76,2.57c-0.26,0.17-0.56,0.24-0.92,0.2v6.6c0,4.46-1.6,6.97-4.05,9.73c-1.38,1.55-3.03,2.8-4.82,3.7 c0.11,0.57,0.26,1.12,0.45,1.65c0.22,0.61,0.5,1.2,0.84,1.75c0.72,0.32,1.43,0.61,2.14,0.9c3.49,1.43,7.04,2.88,8.88,6.23h4.03 c1.42,0,2.58,1.16,2.58,2.58v13.29H33.79V91.9C33.79,90.48,34.95,89.32,36.37,89.32L36.37,89.32L36.37,89.32z M59.64,98.96 c1.71,0,3.1,1.39,3.1,3.1c0,1.71-1.39,3.1-3.1,3.1s-3.1-1.39-3.1-3.1C56.54,100.35,57.93,98.96,59.64,98.96L59.64,98.96z M56.72,80.02c-0.56-0.15-1.11-0.33-1.64-0.55c-0.13,0.57-0.31,1.13-0.54,1.66c-0.28,0.67-0.63,1.31-1.06,1.91 c0.47,0.52,1,0.97,1.58,1.34c1.56,1.01,3.44,1.48,5.28,1.43c1.84-0.04,3.63-0.6,5.03-1.67c0.49-0.37,0.93-0.79,1.3-1.28 c-0.33-0.57-0.61-1.17-0.84-1.8c-0.18-0.49-0.32-0.99-0.44-1.5c-1.79,0.64-3.61,0.96-5.39,0.94 C58.89,80.46,57.79,80.31,56.72,80.02L56.72,80.02L56.72,80.02z M54.9,77.41c0.58,0.3,1.17,0.55,1.78,0.75 c1.13,0.36,2.32,0.53,3.51,0.53v0c1.89,0,3.8-0.43,5.58-1.24c1.78-0.81,3.43-2,4.78-3.52c2.18-2.46,3.59-4.56,3.59-8.56V60.4l0,0 c-0.02-0.59-0.1-1.13-0.25-1.62c-0.15-0.47-0.36-0.89-0.64-1.25c-1.08-1.35-2.11-1.34-3.57-1.33c-0.13,0-0.27,0-0.45,0 c-5.78-0.02-9.58-0.21-12.65-0.63c-2.84-0.38-5.06-0.96-7.65-1.77c-0.24,0.54-0.53,1.07-0.86,1.59c-0.42,0.66-0.91,1.29-1.48,1.88 l-0.17,7.43c-0.06,2.93,0.36,3.79,1.34,5.62c1,1.86,2.62,3.53,4.95,5.59c0.62,0.54,1.28,1.01,1.96,1.38 C54.75,77.33,54.83,77.37,54.9,77.41L54.9,77.41L54.9,77.41z M67.39,62.21c1.05,0,1.91,0.85,1.91,1.9c0,1.05-0.86,1.9-1.91,1.9 c-1.05,0-1.9-0.85-1.9-1.9C65.49,63.07,66.34,62.21,67.39,62.21L67.39,62.21z M53.03,62.21c1.05,0,1.91,0.85,1.91,1.9 c0,1.05-0.85,1.9-1.91,1.9c-1.05,0-1.9-0.85-1.9-1.9C51.13,63.07,51.98,62.21,53.03,62.21L53.03,62.21z M56.32,72.04 c-0.41-0.27-0.52-0.81-0.26-1.22c0.26-0.41,0.81-0.53,1.22-0.26c1,0.65,1.97,1.01,2.88,1.02c0.89,0.01,1.77-0.3,2.63-0.98 c0.38-0.3,0.94-0.23,1.24,0.15c0.3,0.38,0.23,0.94-0.16,1.24c-1.2,0.93-2.44,1.36-3.74,1.34C58.87,73.32,57.6,72.87,56.32,72.04 L56.32,72.04L56.32,72.04z M41.6,89.32h35.65c-1.69-2.24-4.59-3.43-7.45-4.6c-0.6-0.25-1.19-0.49-1.76-0.73 c-0.47,0.64-1.05,1.21-1.71,1.69c-1.58,1.14-3.61,1.8-5.72,1.9c-2.09,0.1-4.26-0.35-6.11-1.41c-0.92-0.53-1.76-1.21-2.48-2.05 c-0.7,0.28-1.43,0.56-2.18,0.84C46.82,86.1,43.49,87.35,41.6,89.32L41.6,89.32L41.6,89.32z M95.38,105.28h12.29V49.62 c0-0.12,0.01-0.24,0.04-0.35L61.62,18.58L14.66,49.28c0.04,0.15,0.06,0.31,0.06,0.47v55.52H27.5H95.38L95.38,105.28z"/></g></svg>